<?xml version="1.0" encoding="UTF-8" standalone="no"?>
<!-- Created with Inkscape (http://www.inkscape.org/) -->

<svg
   width="176"
   height="62"
   viewBox="0 0 46.566666 16.404167"
   version="1.1"
   id="svg5"
   xml:space="preserve"
   xmlns="http://www.w3.org/2000/svg"
   xmlns:svg="http://www.w3.org/2000/svg"><defs
     id="defs2" /><path
     id="rect1055"
     style="fill:#ffffff;stroke-width:0.74683;stroke-linecap:round;stroke-linejoin:round"
     d="M 4.032258e-7,0.00690203 H 46.566666 V 16.411069 H 4.032258e-7 Z" /><g
     id="g167"
     transform="matrix(0.08332611,0,0,0.08437366,-2.8138958,-9.1703386)"><g
       id="layer5" /><g
       id="layer3"><path
         style="fill:none;stroke:#000000;stroke-width:5.6;stroke-linecap:butt;stroke-miterlimit:4;stroke-dasharray:none;stroke-opacity:1"
         id="path1657"
         d="m 271.66635,58.830818 a 77.134056,77.134346 0 0 1 77.13406,77.134342 77.134056,77.134346 0 0 1 -77.13406,77.13435" /><path
         style="fill:none;stroke:#000000;stroke-width:5.6;stroke-linecap:round;stroke-miterlimit:4;stroke-dasharray:none;stroke-opacity:1"
         id="path1657-5"
         d="m -186.2274,-270.94763 a 72.685692,72.685959 0 0 1 72.68569,72.68596 72.685692,72.685959 0 0 1 -72.68569,72.68596"
         transform="scale(-1)" /><path
         style="fill:none;stroke:#000000;stroke-width:5.6;stroke-linecap:butt;stroke-miterlimit:4;stroke-dasharray:none;stroke-opacity:1"
         id="path1657-1"
         d="M 185.85294,125.51838 A 103.68832,103.68871 0 0 1 289.54125,229.20709" /><path
         style="fill:none;stroke:#000000;stroke-width:5.6;stroke-linecap:butt;stroke-miterlimit:4;stroke-dasharray:none;stroke-opacity:1"
         id="path1657-1-4"
         d="M 289.658,229.06703 A 103.80507,88.174049 0 0 1 185.85294,317.24108" /><path
         style="fill:none;stroke:#000000;stroke-width:5.6;stroke-linecap:butt;stroke-linejoin:round;stroke-miterlimit:4;stroke-dasharray:none;stroke-opacity:1"
         id="path1657-9"
         d="M -185.85294,-317.24973 A 129.05713,129.0576 0 0 1 -56.795807,-188.19212 129.05713,129.0576 0 0 1 -185.85294,-59.134521"
         transform="scale(-1)" /><path
         style="fill:none;stroke:#000000;stroke-width:5.6;stroke-linecap:butt;stroke-linejoin:miter;stroke-miterlimit:4;stroke-dasharray:none;stroke-opacity:1"
         d="m 185.85292,59.134522 85.81347,-0.303703"
         id="path3763" /><path
         style="fill:none;stroke:#000000;stroke-width:5.57296;stroke-linecap:round;stroke-linejoin:miter;stroke-miterlimit:4;stroke-dasharray:none;stroke-opacity:1"
         d="M 271.69337,213.09951 H 20.189605"
         id="path4399" /><path
         id="path4884"
         style="stroke:#000000;stroke-width:0.0359664;stroke-linecap:round;stroke-linejoin:round"
         d="m 245.42508,238.94916 a 2.7820168,2.7820168 0 0 1 -2.78201,2.78201 2.7820168,2.7820168 0 0 1 -2.78202,-2.78201 2.7820168,2.7820168 0 0 1 2.78202,-2.78202 2.7820168,2.7820168 0 0 1 2.78201,2.78202 z" /><path
         style="fill:none;stroke:#000000;stroke-width:5.6;stroke-linecap:round;stroke-linejoin:miter;stroke-miterlimit:4;stroke-dasharray:none;stroke-opacity:1"
         d="m 240.07197,278.15745 c 8.12216,5.09298 15.7594,6.79437 25.04206,7.84711"
         id="path5376" /></g><g
       id="layer4"
       style="display:none"><g
         id="text20622"
         style="font-size:29.6333px;line-height:1.25;font-family:'BIZ UDPGothic';-inkscape-font-specification:'BIZ UDPGothic';stroke-width:0.740833" /><g
         aria-label="@moyashiM_25"
         id="text24428"
         style="font-size:7.90222px;line-height:1.25;fill:#808080;stroke-width:0.740833"><path
           d="m 267.77641,311.60094 q 0,0.3635 -0.0869,0.71119 -0.079,0.3477 -0.25287,0.63218 -0.17385,0.27658 -0.42672,0.45043 -0.25287,0.16595 -0.60057,0.16595 -0.3635,0 -0.57686,-0.20546 -0.20546,-0.21336 -0.25287,-0.48204 h -0.0395 q -0.14224,0.29238 -0.41881,0.48994 -0.27658,0.19756 -0.6954,0.19756 -0.60847,0 -0.93246,-0.40302 -0.32399,-0.40301 -0.32399,-1.0668 0,-0.51364 0.20546,-0.91665 0.20545,-0.40302 0.57686,-0.63218 0.3793,-0.22917 0.89295,-0.22917 0.3477,0 0.67959,0.0632 0.3398,0.0553 0.52945,0.12644 l -0.079,1.60415 q -0.008,0.14224 -0.008,0.20545 0,0.0553 0,0.079 0,0.41881 0.14224,0.55315 0.15015,0.12644 0.3477,0.12644 0.24497,0 0.41092,-0.19756 0.17385,-0.20546 0.26077,-0.53735 0.0948,-0.33189 0.0948,-0.74281 0,-0.727 -0.30029,-1.24065 -0.29238,-0.51364 -0.81393,-0.78232 -0.51364,-0.26867 -1.16952,-0.26867 -0.90086,0 -1.52513,0.3714 -0.61638,0.37141 -0.94037,1.02729 -0.31609,0.64798 -0.31609,1.48562 0,1.16953 0.61638,1.7938 0.61637,0.62428 1.778,0.62428 0.48203,0 0.91665,-0.11063 0.44253,-0.10273 0.78232,-0.22917 v 0.53735 q -0.33979,0.14224 -0.76651,0.22917 -0.41882,0.0948 -0.93246,0.0948 -0.93247,0 -1.59625,-0.3477 -0.66379,-0.3477 -1.01939,-0.99568 -0.3477,-0.65589 -0.3477,-1.57254 0,-0.73491 0.22917,-1.35919 0.22916,-0.63217 0.66379,-1.0905 0.43462,-0.46623 1.05099,-0.7191 0.62428,-0.26078 1.4066,-0.26078 0.82183,0 1.46191,0.3398 0.64008,0.33979 1.00358,0.97197 0.3714,0.63218 0.3714,1.50933 z m -3.99062,0.50574 q 0,0.51364 0.19756,0.74281 0.19755,0.22126 0.54525,0.22126 0.44252,0 0.63218,-0.3319 0.19755,-0.33189 0.22916,-0.86134 l 0.0474,-0.98777 q -0.10273,-0.0316 -0.26078,-0.0553 -0.15804,-0.0237 -0.32399,-0.0237 -0.38721,0 -0.62427,0.18966 -0.23707,0.18965 -0.3398,0.48993 -0.10273,0.29239 -0.10273,0.61638 z"
           id="path2594" /><path
           d="m 273.55294,310.10742 q 0.7191,0 1.0747,0.3714 0.3556,0.3714 0.3556,1.18533 v 2.75788 h -0.68749 v -2.72627 q 0,-1.00358 -0.86135,-1.00358 -0.61637,0 -0.88505,0.3556 -0.26077,0.3556 -0.26077,1.03519 v 2.33906 h -0.68749 v -2.72627 q 0,-1.00358 -0.86925,-1.00358 -0.64008,0 -0.88504,0.39511 -0.24497,0.39511 -0.24497,1.13792 v 2.19682 h -0.6954 v -4.23559 h 0.56106 l 0.10273,0.57686 h 0.0395 q 0.19755,-0.33189 0.52945,-0.48994 0.33979,-0.16594 0.7191,-0.16594 0.99568,0 1.29596,0.7112 h 0.0395 q 0.21336,-0.36351 0.57687,-0.53736 0.3635,-0.17384 0.78232,-0.17384 z"
           id="path2596" /><path
           d="m 279.97744,312.29633 q 0,1.051 -0.53735,1.62786 -0.52945,0.57686 -1.43821,0.57686 -0.56106,0 -1.00358,-0.25287 -0.43462,-0.26077 -0.68749,-0.75071 -0.25287,-0.49784 -0.25287,-1.20114 0,-1.05099 0.52154,-1.61995 0.52945,-0.56896 1.44611,-0.56896 0.56896,0 1.01148,0.26077 0.44253,0.25287 0.6875,0.74281 0.25287,0.48203 0.25287,1.18533 z m -3.2004,0 q 0,0.75071 0.29238,1.19324 0.30028,0.43462 0.94827,0.43462 0.64008,0 0.94036,-0.43462 0.30028,-0.44253 0.30028,-1.19324 0,-0.75071 -0.30028,-1.17743 -0.30028,-0.42672 -0.94827,-0.42672 -0.64798,0 -0.94036,0.42672 -0.29238,0.42672 -0.29238,1.17743 z"
           id="path2598" /><path
           d="m 280.25401,310.18644 h 0.74281 l 0.91665,2.41017 q 0.11854,0.324 0.21336,0.60848 0.0948,0.28448 0.14224,0.54525 h 0.0316 q 0.0474,-0.19756 0.15014,-0.51365 0.10273,-0.32399 0.21336,-0.64798 l 0.86135,-2.40227 h 0.75071 l -1.82542,4.82035 q -0.22916,0.60057 -0.57686,0.95617 -0.3477,0.3556 -0.96407,0.3556 -0.18965,0 -0.33189,-0.0237 -0.14224,-0.0158 -0.24497,-0.0395 v -0.55315 q 0.0869,0.0158 0.20546,0.0316 0.12643,0.0158 0.26077,0.0158 0.3635,0 0.58476,-0.20546 0.22127,-0.20545 0.3556,-0.54525 l 0.22127,-0.56106 z"
           id="path2600" /><path
           d="m 286.55208,310.11532 q 0.77442,0 1.14582,0.33979 0.3714,0.3398 0.3714,1.08261 v 2.88431 h -0.50574 l -0.13433,-0.60057 h -0.0316 q -0.27658,0.3477 -0.58477,0.51364 -0.30818,0.16595 -0.83763,0.16595 -0.57687,0 -0.95617,-0.30028 -0.37931,-0.30819 -0.37931,-0.95617 0,-0.63218 0.49784,-0.97198 0.49784,-0.34769 1.53303,-0.3793 l 0.7191,-0.0237 v -0.25287 q 0,-0.52945 -0.22916,-0.73491 -0.22916,-0.20545 -0.64798,-0.20545 -0.3319,0 -0.63218,0.10272 -0.30028,0.0948 -0.56106,0.22127 l -0.21336,-0.52155 q 0.27658,-0.15014 0.65589,-0.25287 0.3793,-0.11063 0.79022,-0.11063 z m 0.82973,2.23633 -0.62427,0.0237 q -0.79023,0.0316 -1.09841,0.25287 -0.30029,0.22127 -0.30029,0.62428 0,0.3556 0.21336,0.52155 0.22127,0.16594 0.56106,0.16594 0.52945,0 0.88505,-0.29238 0.3635,-0.30028 0.3635,-0.91666 z"
           id="path2602" /><path
           d="m 292.13895,313.2525 q 0,0.61637 -0.45832,0.93246 -0.45833,0.31609 -1.23275,0.31609 -0.44253,0 -0.76652,-0.0711 -0.31609,-0.0711 -0.56105,-0.19756 v -0.63217 q 0.25287,0.12643 0.60847,0.23706 0.3635,0.10273 0.7349,0.10273 0.52945,0 0.76652,-0.16594 0.23707,-0.17385 0.23707,-0.45833 0,-0.15805 -0.0869,-0.28448 -0.0869,-0.12644 -0.31609,-0.25287 -0.22126,-0.12644 -0.64008,-0.28448 -0.41091,-0.15805 -0.7033,-0.31609 -0.29238,-0.15805 -0.45042,-0.37931 -0.15805,-0.22126 -0.15805,-0.56896 0,-0.53735 0.43463,-0.82973 0.44252,-0.29238 1.15372,-0.29238 0.38721,0 0.7191,0.079 0.3398,0.079 0.63218,0.20546 l -0.23707,0.55315 q -0.26867,-0.11063 -0.56105,-0.18965 -0.29239,-0.079 -0.60057,-0.079 -0.42672,0 -0.65589,0.14224 -0.22126,0.13433 -0.22126,0.3714 0,0.18175 0.10273,0.30028 0.10273,0.11854 0.33979,0.23707 0.24497,0.11853 0.64799,0.26868 0.40301,0.15014 0.68749,0.30818 0.28448,0.15805 0.43462,0.38721 0.15014,0.22126 0.15014,0.56106 z"
           id="path2604" /><path
           d="m 293.86164,308.41634 v 1.7622 q 0,0.31608 -0.0395,0.59266 h 0.0474 q 0.20546,-0.32399 0.55316,-0.48994 0.3556,-0.16594 0.76651,-0.16594 0.76652,0 1.15373,0.3714 0.39511,0.3635 0.39511,1.17743 v 2.75788 h -0.6875 v -2.71046 q 0,-1.01939 -0.94826,-1.01939 -0.7112,0 -0.97988,0.40301 -0.26077,0.39511 -0.26077,1.13792 v 2.18892 h -0.6954 v -6.00569 z"
           id="path2606" /><path
           d="m 298.40542,308.59809 q 0.15804,0 0.27657,0.11063 0.12644,0.10273 0.12644,0.3319 0,0.22916 -0.12644,0.33979 -0.11853,0.10273 -0.27657,0.10273 -0.17385,0 -0.29239,-0.10273 -0.11853,-0.11063 -0.11853,-0.33979 0,-0.22917 0.11853,-0.3319 0.11854,-0.11063 0.29239,-0.11063 z m 0.33979,1.58835 v 4.23559 h -0.69539 v -4.23559 z"
           id="path2608" /><path
           d="m 302.67261,314.42203 -1.85702,-4.94679 h -0.0316 q 0.0237,0.24497 0.0395,0.66378 0.0158,0.41092 0.0158,0.86135 v 3.42166 h -0.65588 v -5.64219 h 1.05099 l 1.73849,4.6228 h 0.0316 l 1.7701,-4.6228 h 1.04309 v 5.64219 h -0.7033 v -3.46908 q 0,-0.41091 0.0158,-0.81393 0.0237,-0.40301 0.0395,-0.65588 h -0.0316 l -1.88073,4.93889 z"
           id="path2610" /><path
           d="m 310.1086,315.63897 h -3.5402 v -0.50574 h 3.5402 z"
           id="path2612" /><path
           d="m 314.20195,314.42203 h -3.72985 v -0.57686 l 1.47771,-1.49352 q 0.41882,-0.42672 0.7112,-0.75862 0.30029,-0.33189 0.45043,-0.64798 0.15014,-0.31609 0.15014,-0.7033 0,-0.46623 -0.27658,-0.70329 -0.27657,-0.24497 -0.7191,-0.24497 -0.41881,0 -0.727,0.14224 -0.30819,0.14224 -0.63218,0.39511 l -0.3714,-0.46623 q 0.33189,-0.27658 0.75861,-0.46623 0.43462,-0.19756 0.97197,-0.19756 0.79022,0 1.24855,0.40301 0.45833,0.40302 0.45833,1.09841 0,0.44253 -0.18175,0.82974 -0.18175,0.3872 -0.50574,0.76651 -0.32399,0.37931 -0.75861,0.79812 l -1.17743,1.16163 v 0.0316 h 2.8527 z"
           id="path2614" /><path
           d="m 316.78598,310.96086 q 0.86134,0 1.37498,0.43462 0.52155,0.43462 0.52155,1.22484 0,0.87715 -0.56106,1.38289 -0.55315,0.49784 -1.54883,0.49784 -0.44253,0 -0.82183,-0.079 -0.37931,-0.079 -0.64008,-0.22917 V 313.537 q 0.28448,0.17385 0.68749,0.27658 0.41091,0.0948 0.78232,0.0948 0.62427,0 1.00358,-0.29238 0.38721,-0.30028 0.38721,-0.92456 0,-0.55315 -0.3398,-0.84554 -0.33979,-0.30028 -1.0747,-0.30028 -0.22126,0 -0.50574,0.0395 -0.28448,0.0395 -0.45833,0.079 l -0.3477,-0.22126 0.21336,-2.66305 h 2.829 v 0.63218 h -2.23633 l -0.13434,1.63576 q 0.13434,-0.0237 0.3635,-0.0553 0.22917,-0.0316 0.50575,-0.0316 z"
           id="path2616" /></g></g></g><g
     aria-label="もやしくん.com"
     id="text973"
     style="font-size:4.12032px;line-height:1.25;stroke-width:0.193141"
     transform="matrix(1.0750919,0,0,1.0750919,4.7727523,-0.68242627)"><path
       d="m 20.698219,9.4435423 c 0.09889,0.181294 0.148332,0.374949 0.148332,0.5521232 0,0.2554605 -0.103008,0.4820785 -0.317265,0.5933265 -0.140091,0.07829 -0.300783,0.115369 -0.457355,0.115369 -0.362588,0 -0.696334,-0.201895 -0.696334,-0.605687 0,-0.09065 0.0041,-0.185415 0.0082,-0.2801827 h 1.001238 c 0.03708,0 0.05768,-0.0206 0.05768,-0.0618 l -0.0041,-0.362589 c 0,-0.03708 -0.0206,-0.05768 -0.05768,-0.05768 h -0.968276 c 0.01236,-0.164813 0.02884,-0.337866 0.04532,-0.5150397 h 0.968275 c 0.03708,0 0.05768,-0.0206 0.05768,-0.05768 v -0.362589 c 0,-0.03708 -0.0206,-0.05768 -0.05768,-0.05768 h -0.914711 l 0.07417,-0.6262884 c 0.0041,-0.037083 -0.01236,-0.061805 -0.05356,-0.061805 l -0.457356,-0.020602 c -0.03708,0 -0.0618,0.020602 -0.0618,0.053564 -0.0206,0.2142567 -0.04532,0.4367537 -0.06593,0.6551304 H 18.21365 c -0.03708,0 -0.05768,0.0206 -0.05768,0.05768 l 0.0041,0.362589 c 0,0.03708 0.0206,0.05768 0.05769,0.05768 h 0.675732 l -0.05356,0.5150397 h -0.64689 c -0.03708,0 -0.05768,0.0206 -0.05768,0.05768 v 0.366709 c 0,0.03708 0.0206,0.05768 0.05768,0.05768 h 0.618048 c -0.0082,0.1112487 -0.0082,0.2224987 -0.0082,0.3296267 0.0041,0.729297 0.63865,1.075403 1.277299,1.075403 0.276062,0 0.552123,-0.06593 0.778741,-0.189534 0.362588,-0.201896 0.543882,-0.580965 0.543882,-0.988877 0,-0.2060167 -0.04944,-0.4202737 -0.144211,-0.6221687 -0.01236,-0.02884 -0.03708,-0.0412 -0.06593,-0.0412 l -0.453236,-0.0082 c -0.03296,0 -0.04944,0.01648 -0.04944,0.03708 0,0.0082 0.0041,0.0206 0.0082,0.03296 z"
       style="text-align:end;text-anchor:end"
       id="path2642" /><path
       d="m 24.006833,10.115155 c 0.12361,0.02472 0.243099,0.03708 0.358468,0.03708 0.243099,0 0.465596,-0.04944 0.634529,-0.13597 0.391431,-0.1895357 0.589206,-0.5438827 0.589206,-0.8858694 0,-0.4161517 -0.292543,-0.8199437 -0.877628,-0.8982294 -0.05768,-0.0082 -0.115369,-0.01236 -0.177174,-0.01236 l -0.123609,0.0041 c -0.05356,-0.210137 -0.111249,-0.412032 -0.181294,-0.613928 -0.0082,-0.028842 -0.02472,-0.041203 -0.04944,-0.041203 h -0.0206 l -0.444994,0.098888 c -0.02884,0.00412 -0.04532,0.020602 -0.04532,0.045324 0,0.00824 0,0.016481 0.0041,0.024722 0.07417,0.197775 0.12773,0.38731 0.177174,0.5727237 -0.214256,0.04532 -0.436754,0.107129 -0.655131,0.173054 -0.07005,-0.2266177 -0.13597,-0.4532347 -0.210136,-0.6716117 -0.01236,-0.02884 -0.02884,-0.041203 -0.05356,-0.041203 h -0.0206 l -0.444994,0.107129 c -0.02884,0.0041 -0.0412,0.0206 -0.0412,0.04532 0,0.0082 0,0.01648 0.0041,0.02472 0.07005,0.214257 0.140091,0.4532347 0.218377,0.7128157 -0.238979,0.07829 -0.461476,0.160692 -0.651011,0.2307367 -0.02472,0.0082 -0.03708,0.02472 -0.03708,0.04532 0,0.0082 0,0.01648 0.0041,0.02884 l 0.152451,0.4161527 c 0.0082,0.02472 0.02472,0.03708 0.04532,0.03708 0.0082,0 0.01648,0 0.02884,-0.0041 0.177174,-0.07417 0.38319,-0.1606917 0.601567,-0.2472187 0.181294,0.6468897 0.407912,1.5039174 0.539762,2.0601604 0.0082,0.03296 0.02472,0.04532 0.04944,0.04532 h 0.0206 l 0.440924,-0.107111 c 0.02884,-0.0082 0.04532,-0.02472 0.04532,-0.04944 0,-0.0082 0,-0.01236 -0.0041,-0.0206 -0.168933,-0.663372 -0.366709,-1.3967897 -0.576845,-2.1219654 0.416152,-0.1442107 0.832305,-0.2554597 1.145449,-0.2554597 0.04532,0 0.09065,0 0.13185,0.0041 0.288422,0.03708 0.420273,0.2183767 0.420273,0.4079117 0,0.156572 -0.09065,0.3131437 -0.25958,0.3996707 -0.111249,0.04944 -0.24722,0.08241 -0.416153,0.08241 -0.123609,0 -0.2637,-0.01648 -0.420272,-0.05356 -0.03708,-0.01236 -0.0618,0.0041 -0.0618,0.03708 0,0.0041 0,0.0082 0.0041,0.01648 l 0.09889,0.4491157 c 0.0082,0.02884 0.02472,0.04944 0.05768,0.05356 z"
       style="text-align:end;text-anchor:end"
       id="path2644" /><path
       d="m 28.967698,10.712602 c 0.226618,-0.263701 0.341987,-0.548003 0.428514,-0.9105917 0.0082,-0.03708 -0.0041,-0.06181 -0.02884,-0.07829 l -0.412032,-0.25958 c -0.0082,-0.0082 -0.0206,-0.01236 -0.03296,-0.01236 -0.0206,0 -0.03296,0.01648 -0.0412,0.04532 -0.07417,0.4079117 -0.177174,0.6757337 -0.370829,0.8735087 -0.189535,0.181294 -0.453235,0.284302 -0.700454,0.284302 -0.350228,0 -0.663372,-0.206016 -0.679853,-0.6798525 V 9.7195983 c 0,-0.5232807 0.03296,-1.2319754 0.07829,-1.9200681 0,-0.037083 -0.0206,-0.057685 -0.05768,-0.057685 l -0.473836,-0.012361 c -0.03708,0 -0.05768,0.020602 -0.05768,0.057685 -0.02472,0.6674917 -0.0618,1.4503514 -0.0618,2.0024741 0,0.1153687 0,0.2224977 0.0041,0.3172657 0.03296,0.77874 0.613927,1.104246 1.215494,1.104246 0.457355,0 0.922952,-0.181295 1.190772,-0.498559 z"
       style="text-align:end;text-anchor:end"
       id="path2646" /><path
       d="m 32.708945,11.194679 0.403792,-0.362588 c 0.01648,-0.01648 0.0206,-0.02884 0.0206,-0.0412 0,-0.01648 -0.0041,-0.02884 -0.0206,-0.0412 -0.601567,-0.5068 -1.421511,-0.9929977 -1.862385,-1.2484577 -0.0618,-0.03296 -0.09065,-0.07005 -0.09065,-0.107129 0,-0.0412 0.02884,-0.08241 0.08653,-0.1194887 0.383189,-0.267821 1.174291,-0.7457777 1.751136,-1.1825314 0.01648,-0.01648 0.02472,-0.02884 0.02472,-0.0412 0,-0.01648 -0.0082,-0.02884 -0.0206,-0.0412 L 32.605937,7.6635653 c -0.01236,-0.012361 -0.02884,-0.016481 -0.0412,-0.016481 -0.01236,0 -0.02884,0.00412 -0.0412,0.016481 -0.589206,0.5232809 -1.384428,1.0094786 -1.767617,1.2896593 -0.164813,0.12773 -0.25134,0.284302 -0.25134,0.4367537 0,0.156572 0.09065,0.317265 0.276062,0.453235 0.51504,0.3584687 1.269058,0.7869817 1.845903,1.3473457 0.01236,0.01236 0.02884,0.0206 0.0412,0.0206 0.01236,0 0.02884,-0.0041 0.0412,-0.01648 z"
       style="text-align:end;text-anchor:end"
       id="path2648" /><path
       d="m 34.752623,11.132874 c 0.06593,-0.206016 0.144212,-0.436753 0.222498,-0.659251 0.197775,-0.465596 0.457355,-0.6922137 0.634529,-0.6922137 0.115369,0 0.193655,0.09477 0.210136,0.2760617 0.0082,0.164813 0.0082,0.379069 0.04944,0.51092 0.09065,0.424393 0.407912,0.613927 0.745778,0.613927 0.267821,0 0.548002,-0.119489 0.741658,-0.333746 0.247219,-0.271941 0.366708,-0.667491 0.428513,-1.1701707 0.0041,-0.03296 -0.01236,-0.05769 -0.0412,-0.07005 l -0.436754,-0.189535 c -0.0412,-0.01648 -0.06593,0 -0.07005,0.0412 -0.03296,0.399671 -0.123609,0.7746207 -0.276061,0.9600347 -0.09477,0.12361 -0.214257,0.189535 -0.321385,0.189535 -0.12361,0 -0.230738,-0.08653 -0.267821,-0.267821 -0.03296,-0.140091 -0.03296,-0.329626 -0.04532,-0.4697167 -0.0412,-0.403792 -0.271942,-0.5850857 -0.535642,-0.5850857 -0.152452,0 -0.317265,0.0618 -0.461476,0.1771737 0.230738,-0.5521227 0.498559,-1.1289674 0.700455,-1.5863221 0.01648,-0.03296 0.0041,-0.0618 -0.03296,-0.07005 L 35.527244,7.659445 c -0.03708,-0.012361 -0.0618,0 -0.07417,0.037083 -0.317265,0.8570259 -0.848786,2.1590463 -1.264938,3.242691 -0.01236,0.03296 0,0.0618 0.03296,0.07417 l 0.461476,0.156572 c 0.03296,0.01236 0.05768,0 0.07005,-0.03708 z"
       style="text-align:end;text-anchor:end"
       id="path2650" /><path
       d="m 27.893273,14.631729 c 0.206016,0 0.362588,-0.148331 0.362588,-0.354347 0,-0.206016 -0.156572,-0.350227 -0.362588,-0.350227 -0.206016,0 -0.362589,0.144211 -0.362589,0.350227 0,0.206016 0.156573,0.354347 0.362589,0.354347 z"
       style="font-weight:bold;font-family:'LINE Seed JP_OTF';-inkscape-font-specification:'LINE Seed JP_OTF Bold'"
       id="path2652" /><path
       d="m 29.850424,14.631729 c 0.510919,0 0.90235,-0.218377 1.083644,-0.696334 0.01648,-0.03708 0,-0.06181 -0.03296,-0.07005 l -0.424393,-0.103008 c -0.03296,-0.01236 -0.05768,0.0041 -0.07829,0.03296 -0.09477,0.206016 -0.276061,0.309024 -0.51504,0.309024 -0.420272,0 -0.622168,-0.309024 -0.622168,-0.671612 0,-0.366708 0.201896,-0.675732 0.622168,-0.675732 0.238979,0 0.407912,0.09889 0.51092,0.292542 0.01648,0.02472 0.03708,0.0412 0.05768,0.0412 l 0.0206,-0.0041 0.38319,-0.111248 c 0.02884,-0.0082 0.04532,-0.02884 0.04532,-0.05356 0,-0.0041 0,-0.01236 -0.0041,-0.0206 -0.168933,-0.457356 -0.531521,-0.671612 -1.050682,-0.671612 -0.721056,0 -1.182531,0.490318 -1.182531,1.203133 0,0.708695 0.457355,1.199013 1.186652,1.199013 z"
       style="font-weight:bold;font-family:'LINE Seed JP_OTF';-inkscape-font-specification:'LINE Seed JP_OTF Bold'"
       id="path2654" /><path
       d="m 32.466826,14.631729 c 0.741657,0 1.223735,-0.498558 1.223735,-1.199013 0,-0.704574 -0.482078,-1.203133 -1.223735,-1.203133 -0.741658,0 -1.223735,0.498559 -1.223735,1.203133 0,0.700455 0.482077,1.199013 1.223735,1.199013 z m -0.626289,-1.199013 c 0,-0.399671 0.25546,-0.675732 0.626289,-0.675732 0.370828,0 0.626288,0.276061 0.626288,0.675732 0,0.395551 -0.25546,0.671612 -0.626288,0.671612 -0.370829,0 -0.626289,-0.276061 -0.626289,-0.671612 z"
       style="font-weight:bold;font-family:'LINE Seed JP_OTF';-inkscape-font-specification:'LINE Seed JP_OTF Bold'"
       id="path2656" /><path
       d="m 34.222083,14.586406 h 0.461476 c 0.03708,0 0.05768,-0.0206 0.05768,-0.05768 v -1.120727 c 0,-0.440874 0.25546,-0.65101 0.527401,-0.65101 0.267821,0 0.412032,0.177174 0.412032,0.560363 v 1.211374 c 0,0.03708 0.0206,0.05768 0.05768,0.05768 h 0.465596 c 0.03296,0 0.05768,-0.0206 0.05768,-0.05768 v -1.120727 c 0,-0.440874 0.25134,-0.65101 0.523281,-0.65101 0.267821,0 0.412032,0.177174 0.412032,0.560363 v 1.211374 c 0,0.03708 0.0206,0.05768 0.05768,0.05768 h 0.465597 c 0.03296,0 0.05768,-0.0206 0.05768,-0.05768 v -1.446232 c 0,-0.531521 -0.309024,-0.852906 -0.811703,-0.852906 -0.317265,0 -0.622168,0.144211 -0.791101,0.424393 -0.12361,-0.271941 -0.37907,-0.424393 -0.725177,-0.424393 -0.288422,0 -0.568604,0.13185 -0.733417,0.379069 l -0.01236,-0.276061 c 0,-0.0412 -0.02884,-0.05768 -0.0618,-0.05768 h -0.420273 c -0.03708,0 -0.05768,0.0206 -0.05768,0.05768 v 2.19613 c 0,0.03708 0.0206,0.05768 0.05768,0.05768 z"
       style="font-weight:bold;font-family:'LINE Seed JP_OTF';-inkscape-font-specification:'LINE Seed JP_OTF Bold'"
       id="path2658" /></g><path
     style="fill:none;stroke:#000000;stroke-width:0.529167;stroke-linecap:butt;stroke-linejoin:miter;stroke-dasharray:none;stroke-opacity:1"
     d="M 4.0322579e-7,0.00690203 H 46.566666 V 16.411069 H 4.0322579e-7 V 0.00690203"
     id="path3429" /></svg>
