<?xml version="1.0" encoding="UTF-8" standalone="no"?>
<!-- Created with Inkscape (http://www.inkscape.org/) -->

<svg
   width="234"
   height="60"
   viewBox="0 0 61.912499 15.875"
   version="1.1"
   id="svg5"
   xml:space="preserve"
   sodipodi:docname="banner_234_60_.svg"
   inkscape:version="1.2.2 (732a01da63, 2022-12-09)"
   xmlns:inkscape="http://www.inkscape.org/namespaces/inkscape"
   xmlns:sodipodi="http://sodipodi.sourceforge.net/DTD/sodipodi-0.dtd"
   xmlns="http://www.w3.org/2000/svg"
   xmlns:svg="http://www.w3.org/2000/svg"><sodipodi:namedview
     id="namedview29"
     pagecolor="#ffffff"
     bordercolor="#666666"
     borderopacity="1.0"
     inkscape:showpageshadow="2"
     inkscape:pageopacity="0.0"
     inkscape:pagecheckerboard="0"
     inkscape:deskcolor="#d1d1d1"
     showgrid="false"
     inkscape:zoom="5.4059829"
     inkscape:cx="117"
     inkscape:cy="29.966798"
     inkscape:window-width="1920"
     inkscape:window-height="1009"
     inkscape:window-x="-8"
     inkscape:window-y="-8"
     inkscape:window-maximized="1"
     inkscape:current-layer="svg5" /><defs
     id="defs2" /><g
     id="layer1"><path
       id="rect1055"
       style="fill:#ffffff;stroke-width:0.847136;stroke-linecap:round;stroke-linejoin:round"
       d="M 0,0 H 61.912498 V 15.875 H 0 Z" /><g
       id="g167"
       transform="matrix(0.04625345,0,0,0.04625345,0.50837728,-0.76001137)"><g
         id="layer5" /><g
         id="layer3"><path
           style="fill:none;stroke:#000000;stroke-width:5.6;stroke-linecap:butt;stroke-miterlimit:4;stroke-dasharray:none;stroke-opacity:1"
           id="path1657"
           d="m 271.66635,58.830818 a 77.134056,77.134346 0 0 1 77.13406,77.134342 77.134056,77.134346 0 0 1 -77.13406,77.13435" /><path
           style="fill:none;stroke:#000000;stroke-width:5.6;stroke-linecap:round;stroke-miterlimit:4;stroke-dasharray:none;stroke-opacity:1"
           id="path1657-5"
           d="m -186.2274,-270.94763 a 72.685692,72.685959 0 0 1 72.68569,72.68596 72.685692,72.685959 0 0 1 -72.68569,72.68596"
           transform="scale(-1)" /><path
           style="fill:none;stroke:#000000;stroke-width:5.6;stroke-linecap:butt;stroke-miterlimit:4;stroke-dasharray:none;stroke-opacity:1"
           id="path1657-1"
           d="M 185.85294,125.51838 A 103.68832,103.68871 0 0 1 289.54125,229.20709" /><path
           style="fill:none;stroke:#000000;stroke-width:5.6;stroke-linecap:butt;stroke-miterlimit:4;stroke-dasharray:none;stroke-opacity:1"
           id="path1657-1-4"
           d="M 289.658,229.06703 A 103.80507,88.174049 0 0 1 185.85294,317.24108" /><path
           style="fill:none;stroke:#000000;stroke-width:5.6;stroke-linecap:butt;stroke-linejoin:round;stroke-miterlimit:4;stroke-dasharray:none;stroke-opacity:1"
           id="path1657-9"
           d="M -185.85294,-317.24973 A 129.05713,129.0576 0 0 1 -56.795807,-188.19212 129.05713,129.0576 0 0 1 -185.85294,-59.134521"
           transform="scale(-1)" /><path
           style="fill:none;stroke:#000000;stroke-width:5.6;stroke-linecap:butt;stroke-linejoin:miter;stroke-miterlimit:4;stroke-dasharray:none;stroke-opacity:1"
           d="m 185.85292,59.134522 85.81347,-0.303703"
           id="path3763" /><path
           style="fill:none;stroke:#000000;stroke-width:5.57296;stroke-linecap:round;stroke-linejoin:miter;stroke-miterlimit:4;stroke-dasharray:none;stroke-opacity:1"
           d="M 271.69337,213.09951 H 20.189605"
           id="path4399" /><path
           id="path4884"
           style="stroke:#000000;stroke-width:0.0359664;stroke-linecap:round;stroke-linejoin:round"
           d="m 245.42508,238.94916 a 2.7820168,2.7820168 0 0 1 -2.78201,2.78201 2.7820168,2.7820168 0 0 1 -2.78202,-2.78201 2.7820168,2.7820168 0 0 1 2.78202,-2.78202 2.7820168,2.7820168 0 0 1 2.78201,2.78202 z" /><path
           style="fill:none;stroke:#000000;stroke-width:5.6;stroke-linecap:round;stroke-linejoin:miter;stroke-miterlimit:4;stroke-dasharray:none;stroke-opacity:1"
           d="m 240.07197,278.15745 c 8.12216,5.09298 15.7594,6.79437 25.04206,7.84711"
           id="path5376" /></g><g
         id="layer4"
         style="display:none"><g
           id="text20622"
           style="font-size:29.6333px;line-height:1.25;font-family:'BIZ UDPGothic';-inkscape-font-specification:'BIZ UDPGothic';stroke-width:0.740833" /><g
           aria-label="@moyashiM_25"
           id="text24428"
           style="font-size:7.90222px;line-height:1.25;fill:#808080;stroke-width:0.740833"><path
             d="m 267.77641,311.60094 q 0,0.3635 -0.0869,0.71119 -0.079,0.3477 -0.25287,0.63218 -0.17385,0.27658 -0.42672,0.45043 -0.25287,0.16595 -0.60057,0.16595 -0.3635,0 -0.57686,-0.20546 -0.20546,-0.21336 -0.25287,-0.48204 h -0.0395 q -0.14224,0.29238 -0.41881,0.48994 -0.27658,0.19756 -0.6954,0.19756 -0.60847,0 -0.93246,-0.40302 -0.32399,-0.40301 -0.32399,-1.0668 0,-0.51364 0.20546,-0.91665 0.20545,-0.40302 0.57686,-0.63218 0.3793,-0.22917 0.89295,-0.22917 0.3477,0 0.67959,0.0632 0.3398,0.0553 0.52945,0.12644 l -0.079,1.60415 q -0.008,0.14224 -0.008,0.20545 0,0.0553 0,0.079 0,0.41881 0.14224,0.55315 0.15015,0.12644 0.3477,0.12644 0.24497,0 0.41092,-0.19756 0.17385,-0.20546 0.26077,-0.53735 0.0948,-0.33189 0.0948,-0.74281 0,-0.727 -0.30029,-1.24065 -0.29238,-0.51364 -0.81393,-0.78232 -0.51364,-0.26867 -1.16952,-0.26867 -0.90086,0 -1.52513,0.3714 -0.61638,0.37141 -0.94037,1.02729 -0.31609,0.64798 -0.31609,1.48562 0,1.16953 0.61638,1.7938 0.61637,0.62428 1.778,0.62428 0.48203,0 0.91665,-0.11063 0.44253,-0.10273 0.78232,-0.22917 v 0.53735 q -0.33979,0.14224 -0.76651,0.22917 -0.41882,0.0948 -0.93246,0.0948 -0.93247,0 -1.59625,-0.3477 -0.66379,-0.3477 -1.01939,-0.99568 -0.3477,-0.65589 -0.3477,-1.57254 0,-0.73491 0.22917,-1.35919 0.22916,-0.63217 0.66379,-1.0905 0.43462,-0.46623 1.05099,-0.7191 0.62428,-0.26078 1.4066,-0.26078 0.82183,0 1.46191,0.3398 0.64008,0.33979 1.00358,0.97197 0.3714,0.63218 0.3714,1.50933 z m -3.99062,0.50574 q 0,0.51364 0.19756,0.74281 0.19755,0.22126 0.54525,0.22126 0.44252,0 0.63218,-0.3319 0.19755,-0.33189 0.22916,-0.86134 l 0.0474,-0.98777 q -0.10273,-0.0316 -0.26078,-0.0553 -0.15804,-0.0237 -0.32399,-0.0237 -0.38721,0 -0.62427,0.18966 -0.23707,0.18965 -0.3398,0.48993 -0.10273,0.29239 -0.10273,0.61638 z"
             id="path315" /><path
             d="m 273.55294,310.10742 q 0.7191,0 1.0747,0.3714 0.3556,0.3714 0.3556,1.18533 v 2.75788 h -0.68749 v -2.72627 q 0,-1.00358 -0.86135,-1.00358 -0.61637,0 -0.88505,0.3556 -0.26077,0.3556 -0.26077,1.03519 v 2.33906 h -0.68749 v -2.72627 q 0,-1.00358 -0.86925,-1.00358 -0.64008,0 -0.88504,0.39511 -0.24497,0.39511 -0.24497,1.13792 v 2.19682 h -0.6954 v -4.23559 h 0.56106 l 0.10273,0.57686 h 0.0395 q 0.19755,-0.33189 0.52945,-0.48994 0.33979,-0.16594 0.7191,-0.16594 0.99568,0 1.29596,0.7112 h 0.0395 q 0.21336,-0.36351 0.57687,-0.53736 0.3635,-0.17384 0.78232,-0.17384 z"
             id="path317" /><path
             d="m 279.97744,312.29633 q 0,1.051 -0.53735,1.62786 -0.52945,0.57686 -1.43821,0.57686 -0.56106,0 -1.00358,-0.25287 -0.43462,-0.26077 -0.68749,-0.75071 -0.25287,-0.49784 -0.25287,-1.20114 0,-1.05099 0.52154,-1.61995 0.52945,-0.56896 1.44611,-0.56896 0.56896,0 1.01148,0.26077 0.44253,0.25287 0.6875,0.74281 0.25287,0.48203 0.25287,1.18533 z m -3.2004,0 q 0,0.75071 0.29238,1.19324 0.30028,0.43462 0.94827,0.43462 0.64008,0 0.94036,-0.43462 0.30028,-0.44253 0.30028,-1.19324 0,-0.75071 -0.30028,-1.17743 -0.30028,-0.42672 -0.94827,-0.42672 -0.64798,0 -0.94036,0.42672 -0.29238,0.42672 -0.29238,1.17743 z"
             id="path319" /><path
             d="m 280.25401,310.18644 h 0.74281 l 0.91665,2.41017 q 0.11854,0.324 0.21336,0.60848 0.0948,0.28448 0.14224,0.54525 h 0.0316 q 0.0474,-0.19756 0.15014,-0.51365 0.10273,-0.32399 0.21336,-0.64798 l 0.86135,-2.40227 h 0.75071 l -1.82542,4.82035 q -0.22916,0.60057 -0.57686,0.95617 -0.3477,0.3556 -0.96407,0.3556 -0.18965,0 -0.33189,-0.0237 -0.14224,-0.0158 -0.24497,-0.0395 v -0.55315 q 0.0869,0.0158 0.20546,0.0316 0.12643,0.0158 0.26077,0.0158 0.3635,0 0.58476,-0.20546 0.22127,-0.20545 0.3556,-0.54525 l 0.22127,-0.56106 z"
             id="path321" /><path
             d="m 286.55208,310.11532 q 0.77442,0 1.14582,0.33979 0.3714,0.3398 0.3714,1.08261 v 2.88431 h -0.50574 l -0.13433,-0.60057 h -0.0316 q -0.27658,0.3477 -0.58477,0.51364 -0.30818,0.16595 -0.83763,0.16595 -0.57687,0 -0.95617,-0.30028 -0.37931,-0.30819 -0.37931,-0.95617 0,-0.63218 0.49784,-0.97198 0.49784,-0.34769 1.53303,-0.3793 l 0.7191,-0.0237 v -0.25287 q 0,-0.52945 -0.22916,-0.73491 -0.22916,-0.20545 -0.64798,-0.20545 -0.3319,0 -0.63218,0.10272 -0.30028,0.0948 -0.56106,0.22127 l -0.21336,-0.52155 q 0.27658,-0.15014 0.65589,-0.25287 0.3793,-0.11063 0.79022,-0.11063 z m 0.82973,2.23633 -0.62427,0.0237 q -0.79023,0.0316 -1.09841,0.25287 -0.30029,0.22127 -0.30029,0.62428 0,0.3556 0.21336,0.52155 0.22127,0.16594 0.56106,0.16594 0.52945,0 0.88505,-0.29238 0.3635,-0.30028 0.3635,-0.91666 z"
             id="path323" /><path
             d="m 292.13895,313.2525 q 0,0.61637 -0.45832,0.93246 -0.45833,0.31609 -1.23275,0.31609 -0.44253,0 -0.76652,-0.0711 -0.31609,-0.0711 -0.56105,-0.19756 v -0.63217 q 0.25287,0.12643 0.60847,0.23706 0.3635,0.10273 0.7349,0.10273 0.52945,0 0.76652,-0.16594 0.23707,-0.17385 0.23707,-0.45833 0,-0.15805 -0.0869,-0.28448 -0.0869,-0.12644 -0.31609,-0.25287 -0.22126,-0.12644 -0.64008,-0.28448 -0.41091,-0.15805 -0.7033,-0.31609 -0.29238,-0.15805 -0.45042,-0.37931 -0.15805,-0.22126 -0.15805,-0.56896 0,-0.53735 0.43463,-0.82973 0.44252,-0.29238 1.15372,-0.29238 0.38721,0 0.7191,0.079 0.3398,0.079 0.63218,0.20546 l -0.23707,0.55315 q -0.26867,-0.11063 -0.56105,-0.18965 -0.29239,-0.079 -0.60057,-0.079 -0.42672,0 -0.65589,0.14224 -0.22126,0.13433 -0.22126,0.3714 0,0.18175 0.10273,0.30028 0.10273,0.11854 0.33979,0.23707 0.24497,0.11853 0.64799,0.26868 0.40301,0.15014 0.68749,0.30818 0.28448,0.15805 0.43462,0.38721 0.15014,0.22126 0.15014,0.56106 z"
             id="path325" /><path
             d="m 293.86164,308.41634 v 1.7622 q 0,0.31608 -0.0395,0.59266 h 0.0474 q 0.20546,-0.32399 0.55316,-0.48994 0.3556,-0.16594 0.76651,-0.16594 0.76652,0 1.15373,0.3714 0.39511,0.3635 0.39511,1.17743 v 2.75788 h -0.6875 v -2.71046 q 0,-1.01939 -0.94826,-1.01939 -0.7112,0 -0.97988,0.40301 -0.26077,0.39511 -0.26077,1.13792 v 2.18892 h -0.6954 v -6.00569 z"
             id="path327" /><path
             d="m 298.40542,308.59809 q 0.15804,0 0.27657,0.11063 0.12644,0.10273 0.12644,0.3319 0,0.22916 -0.12644,0.33979 -0.11853,0.10273 -0.27657,0.10273 -0.17385,0 -0.29239,-0.10273 -0.11853,-0.11063 -0.11853,-0.33979 0,-0.22917 0.11853,-0.3319 0.11854,-0.11063 0.29239,-0.11063 z m 0.33979,1.58835 v 4.23559 h -0.69539 v -4.23559 z"
             id="path329" /><path
             d="m 302.67261,314.42203 -1.85702,-4.94679 h -0.0316 q 0.0237,0.24497 0.0395,0.66378 0.0158,0.41092 0.0158,0.86135 v 3.42166 h -0.65588 v -5.64219 h 1.05099 l 1.73849,4.6228 h 0.0316 l 1.7701,-4.6228 h 1.04309 v 5.64219 h -0.7033 v -3.46908 q 0,-0.41091 0.0158,-0.81393 0.0237,-0.40301 0.0395,-0.65588 h -0.0316 l -1.88073,4.93889 z"
             id="path331" /><path
             d="m 310.1086,315.63897 h -3.5402 v -0.50574 h 3.5402 z"
             id="path333" /><path
             d="m 314.20195,314.42203 h -3.72985 v -0.57686 l 1.47771,-1.49352 q 0.41882,-0.42672 0.7112,-0.75862 0.30029,-0.33189 0.45043,-0.64798 0.15014,-0.31609 0.15014,-0.7033 0,-0.46623 -0.27658,-0.70329 -0.27657,-0.24497 -0.7191,-0.24497 -0.41881,0 -0.727,0.14224 -0.30819,0.14224 -0.63218,0.39511 l -0.3714,-0.46623 q 0.33189,-0.27658 0.75861,-0.46623 0.43462,-0.19756 0.97197,-0.19756 0.79022,0 1.24855,0.40301 0.45833,0.40302 0.45833,1.09841 0,0.44253 -0.18175,0.82974 -0.18175,0.3872 -0.50574,0.76651 -0.32399,0.37931 -0.75861,0.79812 l -1.17743,1.16163 v 0.0316 h 2.8527 z"
             id="path335" /><path
             d="m 316.78598,310.96086 q 0.86134,0 1.37498,0.43462 0.52155,0.43462 0.52155,1.22484 0,0.87715 -0.56106,1.38289 -0.55315,0.49784 -1.54883,0.49784 -0.44253,0 -0.82183,-0.079 -0.37931,-0.079 -0.64008,-0.22917 v -0.65588 q 0.28448,0.17385 0.68749,0.27658 0.41091,0.0948 0.78232,0.0948 0.62427,0 1.00358,-0.29238 0.38721,-0.30028 0.38721,-0.92456 0,-0.55315 -0.3398,-0.84554 -0.33979,-0.30028 -1.0747,-0.30028 -0.22126,0 -0.50574,0.0395 -0.28448,0.0395 -0.45833,0.079 l -0.3477,-0.22126 0.21336,-2.66305 h 2.829 v 0.63218 h -2.23633 l -0.13434,1.63576 q 0.13434,-0.0237 0.3635,-0.0553 0.22917,-0.0316 0.50575,-0.0316 z"
             id="path337" /></g></g></g><g
       aria-label="moyashim-25"
       id="text311"
       style="font-size:4.57493px;line-height:1.25;text-align:end;text-anchor:end;stroke-width:0.263938"><path
         d="m 28.698153,5.9592267 c 0.03202,0 0.05032,-0.0183 0.05032,-0.054899 V 4.6690963 c 0,-0.5810161 0.384294,-0.8417871 0.727414,-0.8417871 0.370569,0 0.558142,0.2378964 0.558142,0.7045392 v 1.3724791 c 0,0.036599 0.0183,0.054899 0.0549,0.054899 h 0.283645 c 0.02745,0 0.05033,-0.0183 0.05033,-0.054899 V 4.6690963 c 0,-0.5810161 0.379719,-0.8417871 0.722839,-0.8417871 0.375144,0 0.562716,0.2378964 0.562716,0.7045392 v 1.3724791 c 0,0.036599 0.0183,0.054899 0.0549,0.054899 h 0.283646 c 0.02745,0 0.04575,-0.0183 0.04575,-0.054899 V 4.3717259 c 0,-0.5627164 -0.320245,-0.9012613 -0.846362,-0.9012613 -0.356845,0 -0.713689,0.1784223 -0.882961,0.5398418 -0.109799,-0.3431198 -0.393444,-0.5398418 -0.786888,-0.5398418 -0.33397,0 -0.672515,0.1692724 -0.841788,0.4986674 l -0.0183,-0.4025938 c 0,-0.036599 -0.02288,-0.050324 -0.0549,-0.050324 h -0.247046 c -0.03202,0 -0.0549,0.0183 -0.0549,0.050324 v 2.3377893 c 0,0.036599 0.02287,0.054899 0.0549,0.054899 z"
         style="font-family:'LINE Seed JP_OTF';-inkscape-font-specification:'LINE Seed JP_OTF'"
         id="path340" /><path
         d="m 33.899851,6.0095509 c 0.750289,0 1.244381,-0.5398418 1.244381,-1.2718306 0,-0.7365638 -0.494092,-1.2672557 -1.244381,-1.2672557 -0.750288,0 -1.239806,0.5306919 -1.239806,1.2672557 0,0.7319888 0.489518,1.2718306 1.239806,1.2718306 z m 0,-0.3614195 c -0.498667,0 -0.841787,-0.3659944 -0.841787,-0.9104111 0,-0.5444167 0.34312,-0.9104111 0.841787,-0.9104111 0.498668,0 0.841788,0.3659944 0.841788,0.9104111 0,0.5444167 -0.34312,0.9104111 -0.841788,0.9104111 z"
         style="font-family:'LINE Seed JP_OTF';-inkscape-font-specification:'LINE Seed JP_OTF'"
         id="path342" /><path
         d="m 36.237639,7.0114606 c 0.03202,0 0.05032,-0.00915 0.06405,-0.036599 L 37.674167,3.575688 c 0.01372,-0.032024 0,-0.059474 -0.0366,-0.059474 h -0.31567 c -0.02287,0 -0.04117,0.00915 -0.05947,0.041174 L 36.535009,5.4010852 35.766421,3.5573883 c -0.01373,-0.032024 -0.0366,-0.041174 -0.06405,-0.041174 h -0.338545 c -0.0366,0 -0.0549,0.0183 -0.0366,0.059474 l 1.006485,2.3011899 -0.434618,1.0796835 c -0.0091,0.032025 0.0046,0.054899 0.04117,0.054899 z"
         style="font-family:'LINE Seed JP_OTF';-inkscape-font-specification:'LINE Seed JP_OTF'"
         id="path344" /><path
         d="m 39.028344,6.0095509 c 0.388869,0 0.727414,-0.1921471 0.901261,-0.4940925 l 0.01373,0.3888691 c 0,0.041174 0.02287,0.054899 0.0549,0.054899 h 0.247046 c 0.03202,0 0.05032,-0.0183 0.05032,-0.054899 V 3.5665382 c 0,-0.032024 -0.0183,-0.050324 -0.05032,-0.050324 h -0.247046 c -0.03203,0 -0.0549,0.013725 -0.0549,0.050324 l -0.01373,0.388869 C 39.755758,3.6580368 39.417213,3.4704646 39.028344,3.4704646 c -0.709114,0 -1.166607,0.526117 -1.166607,1.2672557 0,0.7411387 0.457493,1.2718306 1.166607,1.2718306 z m 0.0732,-0.3614195 c -0.498668,0 -0.841788,-0.3659944 -0.841788,-0.9104111 0,-0.5444167 0.34312,-0.9104111 0.841788,-0.9104111 0.498667,0 0.841787,0.3659944 0.841787,0.9104111 0,0.5444167 -0.34312,0.9104111 -0.841787,0.9104111 z"
         style="font-family:'LINE Seed JP_OTF';-inkscape-font-specification:'LINE Seed JP_OTF'"
         id="path346" /><path
         d="m 41.869378,6.0095509 c 0.512392,0 0.873811,-0.2790708 0.873811,-0.6999643 0,-0.3659944 -0.205872,-0.5993159 -0.745713,-0.7411387 l -0.137248,-0.036599 c -0.365995,-0.096074 -0.503243,-0.196722 -0.503243,-0.3842941 0,-0.2104468 0.182998,-0.329395 0.448343,-0.329395 0.260772,0 0.448344,0.1189482 0.553567,0.3522697 0.01373,0.027449 0.03203,0.041174 0.06862,0.027449 l 0.251621,-0.077774 c 0.02745,-0.00915 0.04118,-0.032024 0.02745,-0.059474 -0.146398,-0.4025938 -0.475793,-0.590166 -0.896687,-0.590166 -0.512392,0 -0.850937,0.2836457 -0.850937,0.6770897 0,0.3522696 0.224172,0.6038908 0.759439,0.7548635 l 0.146398,0.036599 c 0.333969,0.082349 0.480367,0.1921471 0.480367,0.3797192 0,0.2287465 -0.210447,0.3339699 -0.489517,0.3339699 -0.320245,0 -0.530692,-0.1097983 -0.65879,-0.393444 -0.0091,-0.032024 -0.02745,-0.041174 -0.06405,-0.032024 l -0.251621,0.068624 c -0.02745,0.00915 -0.04118,0.036599 -0.03203,0.064049 0.155548,0.4346184 0.507817,0.6496401 1.02021,0.6496401 z"
         style="font-family:'LINE Seed JP_OTF';-inkscape-font-specification:'LINE Seed JP_OTF'"
         id="path348" /><path
         d="m 43.676475,5.9592267 c 0.03202,0 0.05032,-0.0183 0.05032,-0.054899 V 4.6690963 c 0,-0.5810161 0.411744,-0.8417871 0.759439,-0.8417871 0.407168,0 0.590166,0.2378964 0.590166,0.7045392 v 1.3724791 c 0,0.036599 0.0183,0.054899 0.0549,0.054899 h 0.283645 c 0.02745,0 0.04575,-0.0183 0.04575,-0.054899 V 4.3717259 c 0,-0.5627164 -0.320245,-0.9012613 -0.873812,-0.9012613 -0.32482,0 -0.672515,0.1509727 -0.860087,0.4574931 V 2.3816312 c 0,-0.032025 -0.0183,-0.050324 -0.05032,-0.050324 h -0.283646 c -0.03202,0 -0.0549,0.0183 -0.0549,0.050324 v 3.5226963 c 0,0.036599 0.02287,0.054899 0.0549,0.054899 z"
         style="font-family:'LINE Seed JP_OTF';-inkscape-font-specification:'LINE Seed JP_OTF'"
         id="path350" /><path
         d="m 46.398556,2.9672223 c 0.141823,0 0.256196,-0.1006485 0.256196,-0.2470462 0,-0.1463978 -0.114373,-0.2470462 -0.256196,-0.2470462 -0.146398,0 -0.256196,0.1006484 -0.256196,0.2470462 0,0.1463977 0.109798,0.2470462 0.256196,0.2470462 z m 0.141823,2.9920044 c 0.03202,0 0.05032,-0.0183 0.05032,-0.054899 V 3.5665382 c 0,-0.032024 -0.0183,-0.050324 -0.05032,-0.050324 h -0.283646 c -0.03202,0 -0.0549,0.0183 -0.0549,0.050324 v 2.3377893 c 0,0.036599 0.02287,0.054899 0.0549,0.054899 z"
         style="font-family:'LINE Seed JP_OTF';-inkscape-font-specification:'LINE Seed JP_OTF'"
         id="path352" /><path
         d="m 47.679539,5.9592267 c 0.03203,0 0.05032,-0.0183 0.05032,-0.054899 V 4.6690963 c 0,-0.5810161 0.384294,-0.8417871 0.727414,-0.8417871 0.37057,0 0.558142,0.2378964 0.558142,0.7045392 v 1.3724791 c 0,0.036599 0.0183,0.054899 0.0549,0.054899 h 0.283646 c 0.02745,0 0.05032,-0.0183 0.05032,-0.054899 V 4.6690963 c 0,-0.5810161 0.379719,-0.8417871 0.722839,-0.8417871 0.375144,0 0.562716,0.2378964 0.562716,0.7045392 v 1.3724791 c 0,0.036599 0.0183,0.054899 0.0549,0.054899 h 0.283646 c 0.02745,0 0.04575,-0.0183 0.04575,-0.054899 V 4.3717259 c 0,-0.5627164 -0.320245,-0.9012613 -0.846362,-0.9012613 -0.356844,0 -0.713689,0.1784223 -0.882961,0.5398418 -0.109799,-0.3431198 -0.393444,-0.5398418 -0.786888,-0.5398418 -0.33397,0 -0.672515,0.1692724 -0.841787,0.4986674 l -0.0183,-0.4025938 c 0,-0.036599 -0.02287,-0.050324 -0.0549,-0.050324 h -0.247047 c -0.03202,0 -0.0549,0.0183 -0.0549,0.050324 v 2.3377893 c 0,0.036599 0.02287,0.054899 0.0549,0.054899 z"
         style="font-family:'LINE Seed JP_OTF';-inkscape-font-specification:'LINE Seed JP_OTF'"
         id="path354" /><path
         d="m 53.283832,4.5684479 c 0.03202,0 0.05032,-0.022875 0.05032,-0.050324 V 4.2482028 c 0,-0.032024 -0.0183,-0.050324 -0.05032,-0.050324 h -1.422803 c -0.02745,0 -0.05033,0.0183 -0.05033,0.050324 v 0.2699208 c 0,0.02745 0.02287,0.050324 0.05033,0.050324 z"
         style="font-family:'LINE Seed JP_OTF';-inkscape-font-specification:'LINE Seed JP_OTF'"
         id="path356" /><path
         d="m 56.111135,5.8677281 c 0.03203,0 0.05032,-0.0183 0.05032,-0.054899 V 5.5337581 c 0,-0.02745 -0.0183,-0.050324 -0.05032,-0.050324 h -1.6241 L 54.990277,4.952742 c 0.896687,-0.9424356 1.02936,-1.3038551 1.02936,-1.7613481 0,-0.5627164 -0.434619,-0.9424356 -1.070534,-0.9424356 -0.576441,0 -0.997335,0.3156702 -1.171182,0.8555119 -0.0091,0.036599 0.0046,0.059474 0.0366,0.064049 l 0.288221,0.077774 c 0.02745,0.00915 0.05032,-0.00457 0.06405,-0.032025 0.123523,-0.3705693 0.393444,-0.5672913 0.768588,-0.5672913 0.393444,0 0.672515,0.2195966 0.672515,0.5810161 0,0.3614195 -0.137248,0.6404903 -0.905836,1.4822774 L 53.84197,5.6664311 c -0.01373,0.0183 -0.02745,0.0366 -0.02745,0.059474 v 0.086924 c 0,0.036599 0.02287,0.054899 0.0549,0.054899 z"
         style="font-family:'LINE Seed JP_OTF';-inkscape-font-specification:'LINE Seed JP_OTF'"
         id="path358" /><path
         d="m 58.073779,5.936352 c 0.699965,0 1.189482,-0.4849426 1.189482,-1.1894818 0,-0.6999644 -0.448343,-1.1666072 -1.107133,-1.1666072 -0.32482,0 -0.608466,0.1052234 -0.823487,0.3019453 l 0.114373,-1.1803319 h 1.592075 c 0.02745,0 0.05033,-0.022875 0.05033,-0.054899 V 2.3679065 c 0,-0.032025 -0.02287,-0.050324 -0.05033,-0.050324 h -1.857421 c -0.02745,0 -0.04575,0.013725 -0.0549,0.050324 l -0.160123,1.8162472 c -0.0046,0.032025 0.0092,0.050324 0.03203,0.064049 l 0.150972,0.068624 c 0.02745,0.013725 0.04575,0.00915 0.0732,-0.00915 0.242471,-0.2470463 0.521542,-0.3705694 0.832637,-0.3705694 0.484943,0 0.791463,0.3110953 0.791463,0.8051877 0,0.4940925 -0.32482,0.7960379 -0.791463,0.7960379 -0.393444,0 -0.713689,-0.2104468 -0.850937,-0.6633649 -0.0091,-0.02745 -0.02745,-0.041174 -0.05947,-0.032024 l -0.274495,0.068624 c -0.03202,0.00915 -0.04118,0.032025 -0.03202,0.059474 0.155548,0.6176156 0.645065,0.9653103 1.235231,0.9653103 z"
         style="font-family:'LINE Seed JP_OTF';-inkscape-font-specification:'LINE Seed JP_OTF'"
         id="path360" /></g><g
       aria-label="もやしくん.com"
       id="text973"
       style="font-size:5.88617px;line-height:1.25;stroke-width:0.275914"><path
         d="m 19.54273,11.277165 c 0.141268,0.258992 0.211902,0.535642 0.211902,0.788747 0,0.364943 -0.147154,0.688682 -0.453235,0.847609 -0.20013,0.111837 -0.42969,0.164812 -0.653365,0.164812 -0.517983,0 -0.994763,-0.288422 -0.994763,-0.865267 0,-0.129495 0.0059,-0.264877 0.01177,-0.400259 h 1.430339 c 0.05298,0 0.08241,-0.02943 0.08241,-0.08829 l -0.0059,-0.517983 c 0,-0.05297 -0.02943,-0.08241 -0.08241,-0.08241 h -1.38325 c 0.01766,-0.235447 0.0412,-0.482666 0.06475,-0.735771 h 1.38325 c 0.05297,0 0.08241,-0.02943 0.08241,-0.08241 V 9.7879643 c 0,-0.052976 -0.02943,-0.082406 -0.08241,-0.082406 h -1.30673 l 0.105951,-0.8946979 c 0.0059,-0.052975 -0.01766,-0.088292 -0.07652,-0.088292 l -0.653365,-0.029431 c -0.05298,0 -0.08829,0.029431 -0.08829,0.07652 -0.02943,0.3060809 -0.06475,0.6239341 -0.09418,0.9359011 h -1.047739 c -0.05297,0 -0.08241,0.029431 -0.08241,0.082406 l 0.0059,0.5179827 c 0,0.05298 0.02943,0.08241 0.08241,0.08241 h 0.965332 l -0.07652,0.735771 h -0.924128 c -0.05298,0 -0.08241,0.02943 -0.08241,0.08241 V 11.7304 c 0,0.05298 0.02943,0.08241 0.08241,0.08241 h 0.882925 c -0.01177,0.158926 -0.01177,0.317853 -0.01177,0.470893 0.0059,1.041852 0.912356,1.536291 1.824712,1.536291 0.394374,0 0.788747,-0.09418 1.112487,-0.270764 0.517983,-0.288422 0.776974,-0.82995 0.776974,-1.412681 0,-0.294308 -0.07063,-0.600389 -0.206016,-0.888812 -0.01766,-0.0412 -0.05297,-0.05886 -0.09418,-0.05886 L 19.601592,11.1771 c -0.04709,0 -0.07063,0.02355 -0.07063,0.05298 0,0.01177 0.0059,0.02943 0.01177,0.04709 z"
         style="text-align:end;text-anchor:end"
         id="path363" /><path
         d="m 24.26932,12.236611 c 0.176586,0.03532 0.347284,0.05298 0.512097,0.05298 0.347284,0 0.665137,-0.07063 0.90647,-0.194244 0.559187,-0.270764 0.841723,-0.776974 0.841723,-1.265527 0,-0.594503 -0.417918,-1.1713474 -1.253754,-1.2831846 -0.08241,-0.011772 -0.164813,-0.017659 -0.253106,-0.017659 l -0.176585,0.00589 C 24.769645,9.2346644 24.687239,8.946242 24.587174,8.6578197 24.575401,8.6166165 24.551857,8.598958 24.51654,8.598958 h -0.02943 l -0.635707,0.1412681 c -0.0412,0.00589 -0.06475,0.029431 -0.06475,0.064748 0,0.011772 0,0.023545 0.0059,0.035317 0.105951,0.2825361 0.182471,0.5533 0.253105,0.8181776 C 23.739565,9.7232165 23.421712,9.811509 23.109745,9.9056877 23.00968,9.5819484 22.915501,9.258209 22.80955,8.946242 c -0.01766,-0.041203 -0.0412,-0.058862 -0.07652,-0.058862 h -0.02943 l -0.635706,0.1530405 c -0.0412,0.00589 -0.05886,0.029431 -0.05886,0.064748 0,0.011772 0,0.023545 0.0059,0.035317 0.100065,0.3060809 0.20013,0.6474787 0.311967,1.0183074 -0.341397,0.111837 -0.659251,0.229561 -0.930014,0.329626 -0.03532,0.01177 -0.05298,0.03532 -0.05298,0.06475 0,0.01177 0,0.02355 0.0059,0.0412 l 0.217788,0.594503 c 0.01177,0.03532 0.03532,0.05297 0.06475,0.05297 0.01177,0 0.02355,0 0.0412,-0.0059 0.253105,-0.105951 0.547413,-0.22956 0.85938,-0.35317 0.258992,0.924129 0.582731,2.148452 0.771089,2.943085 0.01177,0.04709 0.03532,0.06475 0.07063,0.06475 h 0.02943 l 0.629821,-0.153041 c 0.0412,-0.01177 0.06475,-0.03532 0.06475,-0.07063 0,-0.01177 0,-0.01766 -0.0059,-0.02943 -0.241333,-0.947673 -0.523869,-1.995411 -0.824063,-3.031377 0.594503,-0.206016 1.189006,-0.364943 1.636355,-0.364943 0.06475,0 0.129496,0 0.188357,0.0059 0.412032,0.05297 0.60039,0.311967 0.60039,0.58273 0,0.223675 -0.129496,0.447349 -0.370829,0.570959 -0.158927,0.07063 -0.35317,0.117723 -0.594503,0.117723 -0.176585,0 -0.376715,-0.02354 -0.60039,-0.07652 -0.05297,-0.01766 -0.08829,0.0059 -0.08829,0.05298 0,0.0059 0,0.01177 0.0059,0.02354 l 0.141268,0.641593 c 0.01177,0.0412 0.03532,0.07063 0.08241,0.07652 z"
         style="text-align:end;text-anchor:end"
         id="path365" /><path
         d="m 31.356269,13.090106 c 0.323739,-0.376715 0.488552,-0.782861 0.612162,-1.300844 0.01177,-0.05297 -0.0059,-0.08829 -0.0412,-0.111837 l -0.588617,-0.370829 c -0.01177,-0.01177 -0.02943,-0.01766 -0.04709,-0.01766 -0.02943,0 -0.04709,0.02354 -0.05886,0.06475 -0.105951,0.58273 -0.253105,0.965331 -0.529755,1.247868 -0.270764,0.258991 -0.647479,0.406145 -1.000649,0.406145 -0.500324,0 -0.947673,-0.294308 -0.971218,-0.971218 v -0.364942 c 0,-0.747544 0.04709,-1.7599651 0.111837,-2.7429555 0,-0.052976 -0.02943,-0.082406 -0.08241,-0.082406 l -0.676909,-0.017659 c -0.05298,0 -0.08241,0.029431 -0.08241,0.082406 -0.03532,0.9535595 -0.08829,2.071932 -0.08829,2.860679 0,0.164812 0,0.317853 0.0059,0.453235 0.04709,1.112486 0.877039,1.577493 1.73642,1.577493 0.653365,0 1.318502,-0.258991 1.701103,-0.712226 z"
         style="text-align:end;text-anchor:end"
         id="path367" /><path
         d="m 36.700905,13.778788 0.576845,-0.517983 c 0.02354,-0.02355 0.02943,-0.0412 0.02943,-0.05886 0,-0.02355 -0.0059,-0.0412 -0.02943,-0.05886 -0.859381,-0.723999 -2.030729,-1.418567 -2.660549,-1.783509 -0.08829,-0.04709 -0.129496,-0.100065 -0.129496,-0.153041 0,-0.05886 0.0412,-0.117723 0.12361,-0.170699 0.547413,-0.382601 1.677558,-1.0653964 2.501622,-1.6893304 0.02354,-0.023545 0.03532,-0.041203 0.03532,-0.058862 0,-0.023545 -0.01177,-0.041203 -0.02943,-0.058862 L 36.553751,8.7343399 c -0.01766,-0.017658 -0.0412,-0.023545 -0.05886,-0.023545 -0.01766,0 -0.0412,0.00589 -0.05886,0.023545 -0.841722,0.7475436 -1.977753,1.4421121 -2.525167,1.8423711 -0.235446,0.182471 -0.359056,0.406146 -0.359056,0.623934 0,0.223675 0.129496,0.453235 0.394373,0.647479 0.735772,0.512097 1.812941,1.124258 2.637005,1.924777 0.01766,0.01766 0.0412,0.02943 0.05886,0.02943 0.01766,0 0.0412,-0.0059 0.05886,-0.02354 z"
         style="text-align:end;text-anchor:end"
         id="path369" /><path
         d="m 39.620447,13.690495 c 0.09418,-0.294309 0.206016,-0.623934 0.317853,-0.941787 0.282536,-0.665137 0.653365,-0.988877 0.90647,-0.988877 0.164813,0 0.27665,0.135382 0.300195,0.394374 0.01177,0.235446 0.01177,0.541527 0.07063,0.729885 0.129495,0.606275 0.582731,0.877039 1.065396,0.877039 0.382602,0 0.782861,-0.170699 1.059511,-0.47678 0.35317,-0.388487 0.523869,-0.953559 0.612162,-1.671672 0.0059,-0.04709 -0.01766,-0.08241 -0.05886,-0.100065 l -0.623934,-0.270764 c -0.05886,-0.02354 -0.09418,0 -0.100065,0.05886 -0.04709,0.570958 -0.176585,1.1066 -0.394373,1.371478 -0.135382,0.176585 -0.306081,0.270763 -0.459121,0.270763 -0.176586,0 -0.329626,-0.123609 -0.382602,-0.382601 -0.04709,-0.200129 -0.04709,-0.470893 -0.06475,-0.671023 -0.05886,-0.576845 -0.388488,-0.835836 -0.765202,-0.835836 -0.217789,0 -0.453236,0.08829 -0.659252,0.253105 0.329626,-0.788747 0.712227,-1.6128104 1.000649,-2.2661752 0.02355,-0.047089 0.0059,-0.088293 -0.04709,-0.1000649 L 40.727047,8.7284538 c -0.05298,-0.017659 -0.08829,0 -0.105951,0.052975 -0.453236,1.2243237 -1.212551,3.0843527 -1.807055,4.6324157 -0.01766,0.04709 0,0.08829 0.04709,0.105951 l 0.659251,0.223675 c 0.04709,0.01766 0.08241,0 0.100065,-0.05298 z"
         style="text-align:end;text-anchor:end"
         id="path371" /><path
         d="m 45.171104,13.761129 c 0.294309,0 0.517983,-0.211902 0.517983,-0.506211 0,-0.294308 -0.223674,-0.500324 -0.517983,-0.500324 -0.294308,0 -0.517983,0.206016 -0.517983,0.500324 0,0.294309 0.223675,0.506211 0.517983,0.506211 z"
         style="font-weight:bold;font-family:'LINE Seed JP_OTF';-inkscape-font-specification:'LINE Seed JP_OTF Bold'"
         id="path373" /><path
         d="m 47.967033,13.761129 c 0.729885,0 1.289071,-0.311967 1.548063,-0.994763 0.02354,-0.05297 0,-0.08829 -0.04709,-0.100065 l -0.606275,-0.147154 c -0.04709,-0.01766 -0.08241,0.0059 -0.111837,0.04709 -0.135382,0.294308 -0.394374,0.441462 -0.735772,0.441462 -0.600389,0 -0.888811,-0.441462 -0.888811,-0.959445 0,-0.52387 0.288422,-0.965332 0.888811,-0.965332 0.341398,0 0.582731,0.141268 0.729885,0.417918 0.02354,0.03532 0.05298,0.05886 0.08241,0.05886 l 0.02943,-0.0059 0.547414,-0.158926 c 0.0412,-0.01177 0.06475,-0.0412 0.06475,-0.07652 0,-0.0059 0,-0.01766 -0.0059,-0.02943 -0.241333,-0.653365 -0.759316,-0.959446 -1.500973,-0.959446 -1.03008,0 -1.689331,0.700454 -1.689331,1.718762 0,1.012421 0.653365,1.712875 1.695217,1.712875 z"
         style="font-weight:bold;font-family:'LINE Seed JP_OTF';-inkscape-font-specification:'LINE Seed JP_OTF Bold'"
         id="path375" /><path
         d="m 51.704751,13.761129 c 1.05951,0 1.748192,-0.712227 1.748192,-1.712875 0,-1.006535 -0.688682,-1.718762 -1.748192,-1.718762 -1.059511,0 -1.748193,0.712227 -1.748193,1.718762 0,1.000648 0.688682,1.712875 1.748193,1.712875 z m -0.894698,-1.712875 c 0,-0.570959 0.364942,-0.965332 0.894698,-0.965332 0.529755,0 0.894697,0.394373 0.894697,0.965332 0,0.565072 -0.364942,0.959445 -0.894697,0.959445 -0.529756,0 -0.894698,-0.394373 -0.894698,-0.959445 z"
         style="font-weight:bold;font-family:'LINE Seed JP_OTF';-inkscape-font-specification:'LINE Seed JP_OTF Bold'"
         id="path377" /><path
         d="m 54.212262,13.696381 h 0.659251 c 0.05297,0 0.08241,-0.02943 0.08241,-0.08241 v -1.601038 c 0,-0.629821 0.364943,-0.930015 0.75343,-0.930015 0.382601,0 0.588617,0.253105 0.588617,0.800519 v 1.730534 c 0,0.05297 0.02943,0.08241 0.08241,0.08241 h 0.665137 c 0.04709,0 0.08241,-0.02943 0.08241,-0.08241 v -1.601038 c 0,-0.629821 0.359056,-0.930015 0.747543,-0.930015 0.382601,0 0.588617,0.253105 0.588617,0.800519 v 1.730534 c 0,0.05297 0.02943,0.08241 0.08241,0.08241 h 0.665137 c 0.04709,0 0.08241,-0.02943 0.08241,-0.08241 v -2.066046 c 0,-0.759316 -0.441463,-1.218437 -1.159575,-1.218437 -0.453235,0 -0.888812,0.206016 -1.130145,0.606275 -0.176585,-0.388487 -0.541528,-0.606275 -1.035966,-0.606275 -0.412032,0 -0.812291,0.188357 -1.047738,0.541528 l -0.01766,-0.394374 c 0,-0.05886 -0.0412,-0.08241 -0.08829,-0.08241 h -0.600389 c -0.05298,0 -0.08241,0.02943 -0.08241,0.08241 v 3.137329 c 0,0.05297 0.02943,0.08241 0.08241,0.08241 z"
         style="font-weight:bold;font-family:'LINE Seed JP_OTF';-inkscape-font-specification:'LINE Seed JP_OTF Bold'"
         id="path379" /></g><path
       style="fill:none;stroke:#000000;stroke-width:0.529167;stroke-linecap:butt;stroke-linejoin:miter;stroke-dasharray:none;stroke-opacity:1;paint-order:normal"
       d="M 0,0 H 61.912499 V 15.875 H 0 V 0"
       id="path1460" /></g></svg>
