<?xml version="1.0" encoding="UTF-8" standalone="no"?>
<!-- Created with Inkscape (http://www.inkscape.org/) -->

<svg
   width="100"
   height="100"
   viewBox="0 0 26.458332 26.458334"
   version="1.1"
   id="svg5"
   inkscape:export-filename="dark_swich.svg"
   inkscape:export-xdpi="76.8"
   inkscape:export-ydpi="76.8"
   xmlns:inkscape="http://www.inkscape.org/namespaces/inkscape"
   xmlns:sodipodi="http://sodipodi.sourceforge.net/DTD/sodipodi-0.dtd"
   xmlns="http://www.w3.org/2000/svg"
   xmlns:svg="http://www.w3.org/2000/svg">
  <sodipodi:namedview
     id="namedview7"
     pagecolor="#ffffff"
     bordercolor="#666666"
     borderopacity="1.0"
     inkscape:showpageshadow="2"
     inkscape:pageopacity="0.0"
     inkscape:pagecheckerboard="0"
     inkscape:deskcolor="#d1d1d1"
     inkscape:document-units="px"
     showgrid="false"
     showguides="true"
     inkscape:zoom="8.3553674"
     inkscape:cx="52.481235"
     inkscape:cy="37.939684"
     inkscape:window-width="1920"
     inkscape:window-height="1009"
     inkscape:window-x="-8"
     inkscape:window-y="-8"
     inkscape:window-maximized="1"
     inkscape:current-layer="layer1">
    <sodipodi:guide
       position="13.229166,13.229166"
       orientation="0,1"
       id="guide132"
       inkscape:locked="false"
       inkscape:label=""
       inkscape:color="rgb(0,134,229)" />
    <sodipodi:guide
       position="13.229166,13.229167"
       orientation="1,0"
       id="guide410"
       inkscape:locked="false" />
  </sodipodi:namedview>
  <defs
     id="defs2" />
  <g
     inkscape:label="Layer 1"
     inkscape:groupmode="layer"
     id="layer1">
    <path
       id="path246"
       style="fill:#808080;stroke-width:2.49414;stroke-linecap:round;stroke-linejoin:round"
       d="M 13.229166,0 A 13.229165,13.229165 0 0 0 0,13.229166 13.229165,13.229165 0 0 0 13.229166,26.458333 13.229165,13.229165 0 0 0 26.458333,13.229166 13.229165,13.229165 0 0 0 13.229166,0 Z m 0,2.6458333 A 10.583333,10.583333 0 0 1 23.8125,13.229166 10.583333,10.583333 0 0 1 13.229166,23.8125 10.583333,10.583333 0 0 1 2.6458333,13.229166 10.583333,10.583333 0 0 1 13.229166,2.6458333 Z" />
    <path
       style="fill:#808080;stroke-width:2.541;stroke-linecap:round;stroke-linejoin:round"
       id="path414"
       sodipodi:type="arc"
       sodipodi:cx="-13.229166"
       sodipodi:cy="13.226902"
       sodipodi:rx="12.43768"
       sodipodi:ry="12.43768"
       sodipodi:start="0"
       sodipodi:end="3.1415927"
       sodipodi:arc-type="arc"
       d="m -0.79148579,13.226902 a 12.43768,12.43768 0 0 1 -6.21884031,10.771347 12.43768,12.43768 0 0 1 -12.4376799,0 12.43768,12.43768 0 0 1 -6.21884,-10.771347"
       sodipodi:open="true"
       transform="rotate(-90)" />
  </g>
</svg>
